ffmpeg version 3.4.2-tessus Copyright (c) 2000-2018 the FFmpeg developers
  built with Apple LLVM version 9.0.0 (clang-900.0.39.2)
  configuration: --cc=/usr/bin/clang --prefix=/opt/ffmpeg --extra-version=tessus --enable-avisynth --enable-fontconfig --enable-gpl --enable-libass --enable-libbluray --enable-libfreetype --enable-libgsm --enable-libmodplug --enable-libmp3lame --enable-libopencore-amrnb --enable-libopencore-amrwb --enable-libopus --enable-libsnappy --enable-libsoxr --enable-libspeex --enable-libtheora --enable-libvidstab --enable-libvo-amrwbenc --enable-libvorbis --enable-libvpx --enable-libwavpack --enable-libx264 --enable-libx265 --enable-libxavs --enable-libxvid --enable-libzmq --enable-libzvbi --enable-version3 --pkg-config-flags=--static --disable-ffplay
  libavutil      55. 78.100 / 55. 78.100
  libavcodec     57.107.100 / 57.107.100
  libavformat    57. 83.100 / 57. 83.100
  libavdevice    57. 10.100 / 57. 10.100
  libavfilter     6.107.100 /  6.107.100
  libswscale      4.  8.100 /  4.  8.100
  libswresample   2.  9.100 /  2.  9.100
  libpostproc    54.  7.100 / 54.  7.100
Input #0, mov,mp4,m4a,3gp,3g2,mj2, from '/Users/rayct/Documents/Projects/ellatronix.com/ellatronix.com/startbootstrap-coming-soon-gh-pages/backup_videos/bg2.mov':
  Metadata:
    major_brand     : qt  
    minor_version   : 537199360
    compatible_brands: qt  
    creation_time   : 2012-09-12T15:18:23.000000Z
    com.apple.finalcutstudio.media.uuid: 0F6F8F92-9FA6-4609-BD41-4A0828AD648A
    timecode        : 00:00:00:00
  Duration: 00:00:14.73, start: 0.000000, bitrate: 7828 kb/s
    Stream #0:0(eng): Video: h264 (Main) (avc1 / 0x31637661), yuv420p(tv, bt709), 1920x1080, 7824 kb/s, 30 fps, 30 tbr, 30 tbn, 60 tbc (default)
    Metadata:
      creation_time   : 2012-09-12T15:19:30.000000Z
      handler_name    : Apple Video Media Handler
      encoder         : H.264
    Stream #0:1(eng): Data: none (tmcd / 0x64636D74), 0 kb/s (default)
    Metadata:
      creation_time   : 2012-09-12T15:19:30.000000Z
      handler_name    : Time Code Media Handler
      timecode        : 00:00:00:00
Output #0, mp4, to '/Users/rayct/Documents/Projects/ellatronix.com/ellatronix.com/startbootstrap-coming-soon-gh-pages/backup_videos/bg2.conv.mp4':
  Metadata:
    major_brand     : qt  
    minor_version   : 537199360
    compatible_brands: qt  
    timecode        : 00:00:00:00
    com.apple.finalcutstudio.media.uuid: 0F6F8F92-9FA6-4609-BD41-4A0828AD648A
    media_type      : 9
    encoder         : Lavf57.83.100
    Stream #0:0(eng): Video: h264 (Main) (avc1 / 0x31637661), yuv420p(tv, bt709), 1920x1080, q=2-31, 7824 kb/s, 30 fps, 30 tbr, 15360 tbn, 30 tbc (default)
    Metadata:
      creation_time   : 2012-09-12T15:19:30.000000Z
      encoder         : H.264
      handler_name    : Apple Video Media Handler
      title           : Video Track
Stream mapping:
  Stream #0:0 -> #0:0 (copy)
Press [q] to stop, [?] for help
frame=  442 fps=0.0 q=-1.0 Lsize=   14079kB time=00:00:14.66 bitrate=7863.6kbits/s speed= 358x    
video:14072kB audio:0kB subtitle:0kB other streams:0kB global headers:0kB muxing overhead: 0.046954%
